PathFileType  4	(X/Y/Z) C:\Users\antoi\Documents\MyRepositories\mobilecap\ResultsAnalysis
DataRate	CameraRate	NumFrames	NumMarkers	Units	OrigDataRate	OrigDataStartFrame	OrigNumFrames
100.0	100.0	4	51	mm	100.0	444	1774
Frame#	Time	r_knee			r_shank_antsup			r_ankle			r_calc			r_5meta			r_toe			L_knee			L_shank_antsup			L_ankle			L_calc			L_5meta			L_toe			r_sh2			r_sh3			r_sh4			L_sh2			L_sh3			r_thigh1			r_thigh2			r_thigh3			r_thigh4			r_thigh5			L_thigh1			L_thigh2			L_thigh3			L_thigh4			r.ASIS			r.PSIS			L.ASIS			L.PSIS			C7			R_Shoulder			L_Shoulder			R_Sternum			L_Sternum			R_humerus			R_elbow_med			R_elbow_lat			R_forearm			R_wrist_radius			R_wrist_ulna			L_humerus			L_elbow_med			L_elbow_lat			L_forearm			L_wrist_radius			L_wrist_ulna			R_HJC			L_HJC			R_HJC_reg			L_HJC_reg			
		X1	Y1	Z1	X2	Y2	Z2	X3	Y3	Z3	X4	Y4	Z4	X5	Y5	Z5	X6	Y6	Z6	X7	Y7	Z7	X8	Y8	Z8	X9	Y9	Z9	X10	Y10	Z10	X11	Y11	Z11	X12	Y12	Z12	X13	Y13	Z13	X14	Y14	Z14	X15	Y15	Z15	X16	Y16	Z16	X17	Y17	Z17	X18	Y18	Z18	X19	Y19	Z19	X20	Y20	Z20	X21	Y21	Z21	X22	Y22	Z22	X23	Y23	Z23	X24	Y24	Z24	X25	Y25	Z25	X26	Y26	Z26	X27	Y27	Z27	X28	Y28	Z28	X29	Y29	Z29	X30	Y30	Z30	X31	Y31	Z31	X32	Y32	Z32	X33	Y33	Z33	X34	Y34	Z34	X35	Y35	Z35	X36	Y36	Z36	X37	Y37	Z37	X38	Y38	Z38	X39	Y39	Z39	X40	Y40	Z40	X41	Y41	Z41	X42	Y42	Z42	X43	Y43	Z43	X44	Y44	Z44	X45	Y45	Z45	X46	Y46	Z46	X47	Y47	Z47	X48	Y48	Z48	X49	Y49	Z49	X50	Y50	Z50	X51	Y51	Z51	

444	4.43000000	-196.90413	478.46609	-416.36139	-150.76947	386.03593	-419.11327	-294.61245	89.68390	-432.08158	-359.59425	57.65280	-477.07002	-172.36253	42.51803	-402.73860	-143.76070	71.81983	-460.06504	-203.70380	481.06907	-815.22029	-146.31812	394.49461	-801.77709	-286.60171	93.52431	-780.63807	-361.39658	52.35185	-734.94191	-178.93189	40.08200	-809.44846	-136.52842	66.89848	-751.31347	-183.87776	277.10890	-422.70042	-215.19428	401.55578	-382.69789	-253.67503	294.17127	-381.53325	-222.81201	425.09961	-841.27307	-257.33650	308.61852	-842.17202	-405.58039	653.69170	-410.55313	-308.02509	608.47142	-422.47656	-304.98439	550.32825	-384.42360	-451.51321	553.05135	-387.52694	-343.42862	509.35857	-399.41276	-422.07214	568.12812	-834.66064	-251.08642	605.67895	-787.11647	-380.37339	656.86483	-787.53535	-299.56270	513.95413	-822.27359	-394.53938	663.53549	-475.04441	-532.68580	793.58829	-556.21641	-399.76301	674.65478	-736.64831	-530.66004	794.60513	-648.03515	-117.39983	991.57376	-585.27677	-75.62488	913.44406	-424.74915	-55.63983	904.57505	-721.36171	-87.26487	848.62706	-555.92792	-83.11479	849.92180	-602.29333	-163.90831	819.47099	-363.97625	-377.90991	783.92192	-394.57468	-367.67214	786.46974	-318.24118	-278.08566	739.66484	-328.04535	-141.28445	710.86371	-410.67335	-157.86907	669.31062	-388.99357	-161.13819	831.03194	-810.69856	-369.25699	805.92522	-789.19878	-348.16858	828.44453	-870.07523	-276.76432	794.72106	-876.81650	-136.22388	726.68889	-824.65248	-158.10610	696.31161	-860.86975	-504.90707	631.33669	-505.08670	-505.27866	637.89368	-694.53607	-499.54787	638.95091	-514.68746	-495.73644	640.86516	-687.48312	
445	4.44000000	-195.03007	478.59073	-417.46103	-149.62180	385.88562	-420.07774	-294.52175	89.86571	-432.06457	-359.55369	57.75774	-477.07432	-172.32470	42.53418	-402.79505	-143.63836	71.68112	-460.17196	-201.68501	481.70271	-813.80683	-144.98715	394.70653	-800.30286	-286.41153	93.71528	-780.55522	-361.32164	52.50397	-734.82833	-178.90795	40.13172	-809.40291	-136.43954	66.67188	-751.22598	-183.08677	277.11996	-423.33433	-213.90535	401.70315	-383.51215	-252.79950	294.60076	-382.22041	-221.32307	425.70771	-840.05955	-256.16246	309.18007	-841.03542	-400.16143	658.89328	-410.77840	-303.75919	611.60762	-423.10264	-301.68955	553.16518	-385.32319	-448.11432	559.09675	-387.90731	-340.97752	513.15310	-399.68758	-418.07335	573.26539	-833.77941	-246.55459	607.26276	-785.58648	-374.71443	661.24290	-786.82012	-296.87584	516.51802	-821.05927	-389.40732	669.28799	-476.00959	-526.40425	801.98976	-555.84395	-394.23706	680.26888	-735.91554	-524.34844	803.25688	-648.05390	-114.63548	1000.35570	-586.00134	-72.40539	923.20240	-424.27269	-52.23440	913.52069	-722.55660	-82.28133	858.06429	-556.29540	-77.86836	859.53667	-602.72132	-161.15873	829.06408	-364.00374	-374.44885	793.37992	-397.06115	-365.19097	795.33223	-320.64894	-275.74595	748.06511	-330.22300	-138.70344	718.79396	-412.47767	-155.63439	677.27847	-390.88400	-157.91092	839.08123	-810.70547	-365.63419	812.67411	-786.78800	-345.33202	834.36014	-868.17434	-273.95379	800.42948	-875.22694	-132.95703	732.65525	-823.12501	-155.43153	702.46264	-858.99706	-500.57113	638.99927	-505.11023	-500.85383	645.66819	-694.55520	-494.46964	646.33231	-515.44852	-490.64267	648.68994	-687.10992	
446	4.45000000	-193.29913	479.34912	-418.37168	-148.56633	385.79274	-421.05029	-294.49285	89.98107	-432.04141	-359.51482	57.86329	-477.08011	-172.29251	42.51958	-402.88743	-143.54466	71.56426	-460.28520	-199.75979	482.17446	-812.04166	-143.71657	394.76516	-798.68303	-286.23718	93.84208	-780.39181	-361.26605	52.67122	-734.76265	-178.89354	40.16073	-809.38438	-136.33094	66.49917	-751.16706	-182.40871	277.08708	-423.99365	-212.65073	401.81107	-384.51430	-252.06819	294.57871	-382.74550	-219.86096	426.24605	-838.67480	-255.05623	309.71903	-840.13984	-394.43804	663.70072	-411.53455	-299.22561	614.56302	-423.80798	-298.34070	556.03538	-386.49219	-444.65040	565.06049	-388.33762	-338.49761	516.72855	-399.97484	-414.05488	578.21560	-832.76567	-242.09895	608.75274	-783.94488	-369.11495	665.48039	-786.13414	-294.37095	519.05612	-819.60756	-384.30695	674.37093	-478.41683	-520.20566	810.36855	-555.52933	-388.70113	685.94257	-735.20736	-518.27281	811.87212	-647.94014	-114.29870	1009.08300	-587.13332	-69.33696	933.67050	-423.91514	-49.76535	923.15785	-724.17023	-79.17376	866.79509	-559.37089	-72.84087	869.66304	-603.01882	-158.52511	839.22579	-364.21660	-371.26254	803.26686	-399.51582	-362.77439	804.56836	-322.96990	-273.41738	756.79888	-332.34206	-136.15562	727.13812	-414.31094	-153.42599	685.71826	-392.86802	-154.64498	847.74331	-810.67365	-361.90726	819.94902	-784.48427	-342.42134	840.75782	-866.37545	-271.09251	806.51795	-873.50877	-129.73737	739.21400	-821.28924	-152.51453	708.79995	-856.94906	-496.26418	646.18849	-505.78908	-496.61667	653.62990	-695.20312	-489.04906	654.06192	-517.20943	-485.49971	656.82156	-686.82930	
447	4.46000000	-191.83734	480.17266	-419.18772	-147.56747	385.80937	-422.02941	-294.46120	90.10401	-432.04191	-359.46765	57.94739	-477.08077	-172.21295	42.50528	-403.01060	-143.42907	71.44198	-460.41077	-197.91716	482.58607	-810.01031	-142.48407	394.67168	-796.91321	-286.05542	94.01660	-780.33148	-361.16891	52.87026	-734.83184	-178.86852	40.17614	-809.38526	-136.21577	66.32674	-751.12524	-181.73346	277.07742	-424.65165	-211.40238	402.04137	-385.41945	-251.16306	294.58712	-382.98185	-218.38096	426.47829	-836.90469	-253.94939	310.18924	-839.26479	-388.65698	668.35064	-412.43066	-294.82116	617.45730	-424.45221	-294.96692	558.78465	-387.65056	-441.12249	570.90116	-388.76681	-336.02328	520.20526	-400.64596	-410.05230	583.09577	-831.98950	-237.73193	610.22089	-782.44198	-363.56413	669.60074	-785.52215	-290.60450	522.95593	-819.91902	-379.05265	679.86743	-480.21365	-514.09718	818.70991	-555.04557	-383.17541	691.69364	-734.61690	-512.37340	820.32540	-647.73218	-114.40425	1018.18648	-588.41177	-66.49369	944.75807	-423.72136	-47.11865	933.48832	-725.25051	-75.68883	876.47779	-561.54158	-68.05751	880.21030	-603.23099	-156.04612	849.96283	-364.50042	-368.56687	813.29499	-401.89822	-360.31217	814.07057	-325.31849	-271.09306	765.86878	-334.44581	-133.62367	735.85813	-416.11612	-151.08407	694.40771	-394.98363	-151.35018	856.88815	-810.49815	-358.27544	827.61546	-782.49552	-339.47729	847.47540	-864.74565	-268.22793	812.96055	-871.69560	-126.50214	746.28848	-819.35808	-149.47568	715.41580	-854.72621	-491.70131	653.50087	-506.11859	-492.23796	661.45279	-695.51198	-483.54158	661.79147	-518.35534	-480.41530	664.72219	-686.41111	
